<svg xmlns="http://www.w3.org/2000/svg" width="27.722" height="36.001" viewBox="0 0 27.722 36.001">
  <path id="Icon_simple-readthedocs" data-name="Icon simple-readthedocs" d="M4.139,36l1-.216c.311-.066.618-.127.929-.189.477-.093.956-.185,1.432-.273.36-.069.72-.127,1.081-.194l.083-.022c.375-.066.747-.135,1.12-.18l1.821-.269V0h-.063C10.593,0,9.654.023,8.712.053,7.679.08,6.621.143,5.586.21c-.449.031-.9.069-1.348.1H4.17V35.991ZM13.366.023V34.435c1.292-.15,2.58-.273,3.873-.369A91.989,91.989,0,0,1,26.8,33.84q2.538.076,5.061.288V2.254q-2.259-.515-4.542-.911C24.366.831,21.386.472,18.4.247Q15.891.065,13.37.024h0Zm16.145,22.2-.069-.006L28.6,22.12c-2.1-.219-4.208-.363-6.311-.437s-4.222-.045-6.334.024H15.89a.582.582,0,0,1-.2-.024.89.89,0,0,1-.4-.223.872.872,0,0,1-.234-.743.947.947,0,0,1,.081-.249.738.738,0,0,1,.156-.2.836.836,0,0,1,.215-.156,1.334,1.334,0,0,1,.27-.091h.135c.292,0,.587-.024.855-.024,2.093-.044,4.16-.044,6.253.045,2.159.09,4.3.247,6.432.5l.226.022c.066.024.133.024.2.045a.991.991,0,0,1,.382.271.973.973,0,0,1,.157.246.622.622,0,0,1,.066.27.846.846,0,0,1-.246.675,1.283,1.283,0,0,1-.2.157.873.873,0,0,1-.249.09.228.228,0,0,1-.133.024h-.07l-.072-.12Zm.052-4.066a.7.7,0,0,1-.135-.009l-.833-.107c-2.093-.268-4.206-.45-6.3-.538-2.093-.112-4.208-.135-6.321-.09l-.069-.024c-.068-.022-.135-.022-.2-.044a.854.854,0,0,1-.381-.249,1.143,1.143,0,0,1-.135-.222.887.887,0,0,1,.021-.788.851.851,0,0,1,.158-.225.491.491,0,0,1,.225-.156.64.64,0,0,1,.27-.09L16,15.586l.878-.023c2.094-.024,4.161.023,6.229.135,2.159.113,4.3.315,6.434.585l.223.024.136.021a.776.776,0,0,1,.405.249.843.843,0,0,1,.247.674.459.459,0,0,1-.067.247,2.121,2.121,0,0,1-.135.225.8.8,0,0,1-.2.18A.865.865,0,0,1,29.9,18l-.136.021H29.7l-.136.135Zm0-4.066a.7.7,0,0,1-.135-.009l-.833-.12c-2.093-.285-4.184-.5-6.3-.642-2.093-.138-4.208-.2-6.321-.193h-.069l-.135-.024a1.1,1.1,0,0,1-.246-.1.943.943,0,0,1-.427-.657,1.023,1.023,0,0,1,.024-.27.918.918,0,0,1,.089-.255.965.965,0,0,1,.182-.216.887.887,0,0,1,.427-.225.838.838,0,0,1,.2-.023h.854c2.159.014,4.319.1,6.456.258,2.093.158,4.161.39,6.229.686l.225.031a.5.5,0,0,1,.135.028.883.883,0,0,1,.247.12.54.54,0,0,1,.2.184,2.67,2.67,0,0,1,.135.237.882.882,0,0,1-.044.719.8.8,0,0,1-.157.219.817.817,0,0,1-.405.225.343.343,0,0,1-.136.021l-.066.007h-.136Zm0-4.068a.6.6,0,0,1-.135-.01L28.6,9.871c-2.093-.337-4.184-.587-6.3-.744-2.093-.179-4.208-.269-6.321-.314h-.069l-.158-.021a.951.951,0,0,1-.248-.111.934.934,0,0,1-.21-.182,1.836,1.836,0,0,1-.141-.224,1.352,1.352,0,0,1-.066-.271.937.937,0,0,1,.271-.741.885.885,0,0,1,.418-.225.623.623,0,0,1,.2-.023c.283,0,.57.008.855.012,2.156.051,4.306.169,6.456.369,2.08.179,4.155.45,6.218.786l.2.024a.3.3,0,0,1,.135.021,1.006,1.006,0,0,1,.247.114.782.782,0,0,1,.188.179.948.948,0,0,1,.157.7,1.114,1.114,0,0,1-.091.249.773.773,0,0,1-.18.2.9.9,0,0,1-.406.224h-.2l.006.123Zm-23.5-.764a.957.957,0,0,1-.406-.094A.91.91,0,0,1,5.159,8.4.924.924,0,0,1,5.2,8.154a.684.684,0,0,1,.135-.285,1,1,0,0,1,.246-.243,1.091,1.091,0,0,1,.361-.138l.72-.066c.989-.087,1.958-.157,2.924-.216h.09a.814.814,0,0,1,.406.107.886.886,0,0,1,.471.779.939.939,0,0,1-.043.241.71.71,0,0,1-.137.283.828.828,0,0,1-.248.248A1.011,1.011,0,0,1,9.77,9c-.156.023-.314.023-.471.045-.2.023-.429.023-.654.047l-1.752.132-.427.047a1.213,1.213,0,0,1-.294.023l-.113-.038Zm23.483-3.3L29.4,5.937l-.831-.15c-2.093-.351-4.208-.637-6.321-.846-2.093-.207-4.206-.338-6.321-.406h-.068l-.135-.027a.957.957,0,0,1-.248-.107,1.111,1.111,0,0,1-.2-.181.846.846,0,0,1-.18-.759,1.53,1.53,0,0,1,.111-.27.892.892,0,0,1,.182-.225.941.941,0,0,1,.427-.225.618.618,0,0,1,.2-.023l.876.023c2.093.092,4.161.225,6.231.451,2.159.222,4.3.539,6.432.9l.225.021a.226.226,0,0,1,.135.024.869.869,0,0,1,.247.111.907.907,0,0,1,.358.631.544.544,0,0,1-.022.272.47.47,0,0,1-.088.246,1.545,1.545,0,0,1-.157.2.759.759,0,0,1-.429.2l-.129.021h-.069l-.09.129ZM6.033,4.8a.883.883,0,0,1-.375-.084.863.863,0,0,1-.447-.477A.812.812,0,0,1,5.153,4a.885.885,0,0,1,.383-.819.9.9,0,0,1,.39-.148c.237-.021.471-.021.709-.043.975-.068,1.952-.112,2.924-.158H9.63a1.109,1.109,0,0,1,.384.112.939.939,0,0,1,.45.786.858.858,0,0,1-.045.249,1.294,1.294,0,0,1-.156.293A.691.691,0,0,1,9.99,4.5a.759.759,0,0,1-.382.113,3.719,3.719,0,0,1-.495.021l-.674.047c-.608.043-1.193.068-1.779.111l-.45.024a1.37,1.37,0,0,1-.291.023Z" transform="translate(-4.139 0.002)" fill="#3d5264"/>
</svg>
