<svg xmlns="http://www.w3.org/2000/svg" width="20.58" height="20.58" viewBox="0 0 20.58 20.58">
  <path id="Icon_awesome-python" data-name="Icon awesome-python" d="M20.2,9.99C19.849,8.571,19.178,7.5,17.75,7.5H15.908V9.678a3.151,3.151,0,0,1-3.069,3.114H7.933A2.5,2.5,0,0,0,5.48,15.287v4.676c0,1.332,1.158,2.113,2.453,2.494a8.255,8.255,0,0,0,4.906,0c1.236-.358,2.453-1.08,2.453-2.494v-1.87h-4.9v-.625H17.75c1.429,0,1.957-1,2.453-2.49a8.4,8.4,0,0,0,0-4.989Zm-7.056,9.348a.935.935,0,1,1-.923.933A.928.928,0,0,1,13.147,19.338ZM7.708,12.177h4.906a2.473,2.473,0,0,0,2.453-2.494V5a2.742,2.742,0,0,0-2.453-2.554,15.142,15.142,0,0,0-4.906,0C5.632,2.82,5.255,3.587,5.255,5.006v1.87h4.911V7.5H3.413A3.067,3.067,0,0,0,.345,9.99a9.2,9.2,0,0,0,0,4.989c.349,1.452,1.181,2.49,2.609,2.49H4.64V15.227A3.119,3.119,0,0,1,7.708,12.177ZM7.4,5.626a.935.935,0,1,1,.923-.933A.928.928,0,0,1,7.4,5.626Z" transform="translate(0 -2.25)" fill="#3d5264"/>
</svg>
