<svg id="Layer_1" data-name="Layer 1" xmlns="http://www.w3.org/2000/svg" viewBox="0 0 518.17 523.69"><defs><style>.cls-1,.cls-8{fill:#93c4ca;}.cls-2{fill:#8cbac0;}.cls-3{fill:#5bb6c8;}.cls-4{fill:#87b3b9;}.cls-5{fill:#54a7b7;}.cls-6{fill:#fdba54;}.cls-7{fill:#57aebe;}.cls-10,.cls-8{opacity:0.25;}.cls-9{fill:#efb050;}.cls-10{fill:#50a6b7;}</style></defs><title>dataJointicon</title><g id="_Group_" data-name="&lt;Group&gt;"><polygon class="cls-1" points="518.17 74.83 518.17 224.43 388.61 299.23 388.61 149.69 518.17 74.83"/><polygon class="cls-2" points="259.06 74.9 259.06 74.89 259.06 74.83 388.61 0.03 518.17 74.83 388.61 149.69 259.06 74.9"/><polygon class="cls-3" points="388.61 299.29 388.61 448.89 259.06 523.69 259.06 374.09 388.61 299.29"/><polygon class="cls-1" points="388.61 299.23 388.61 299.29 259.1 224.52 259.15 224.49 388.61 299.23"/><polygon class="cls-4" points="388.61 149.69 388.61 299.23 259.15 224.49 388.61 149.69"/><polygon class="cls-4" points="259.06 74.9 388.61 149.69 259.15 224.49 259.06 224.43 259.06 74.89 259.06 74.9"/><polygon class="cls-5" points="388.61 299.29 259.06 374.09 259.06 374 259.06 369.63 259.06 224.55 259.1 224.52 388.61 299.29"/><polygon class="cls-6" points="259.06 224.49 259 224.52 129.5 149.69 129.56 149.66 259.06 74.89 259.06 224.43 259.15 224.49 259.1 224.52 259.06 224.49"/><polygon class="cls-4" points="259.1 224.52 259.06 224.55 259.06 224.49 259.1 224.52"/><polygon class="cls-7" points="259.06 374.09 259.06 523.69 129.5 448.89 129.5 300 129.5 299.29 259.06 374.09"/><polygon class="cls-5" points="259.06 374 259.06 374.09 129.5 299.29 259 224.52 259.06 224.55 259.06 369.63 259.06 374"/><polygon class="cls-5" points="259.06 224.49 259.06 224.55 259 224.52 259.06 224.49"/><polygon class="cls-6" points="259 224.52 129.5 299.29 129.5 150.46 129.5 149.69 259 224.52"/><polygon class="cls-8" points="259.1 374.09 259.1 224.55 388.66 149.69 388.66 299.29 259.1 374.09"/><polygon class="cls-9" points="259.11 74.8 129.56 149.66 0.01 74.87 0 74.86 0 74.8 129.56 0 259.11 74.8"/><polygon class="cls-10" points="259.1 224.49 259.1 374.09 129.56 299.29 129.56 150.4 129.56 149.72 129.56 149.69 259.1 224.49"/></g></svg>