<svg id="Layer_1" data-name="Layer 1" xmlns="http://www.w3.org/2000/svg" viewBox="0 0 1036.46 1047.46"><defs><style>.cls-1{opacity:0.54;}.cls-2,.cls-28,.cls-9{fill:#93c4ca;}.cls-29,.cls-3{fill:#8cbac0;}.cls-4{fill:#5bb6c8;}.cls-5{fill:#87b3b9;}.cls-6{fill:#54a7b7;}.cls-19,.cls-7{fill:#fdba54;}.cls-27,.cls-30,.cls-8{fill:#57aebe;}.cls-11,.cls-9{opacity:0.25;}.cls-10,.cls-26{fill:#efb050;}.cls-11,.cls-15,.cls-18{fill:#50a6b7;}.cls-12,.cls-17,.cls-24{fill:#dca249;}.cls-12,.cls-25{opacity:0.99;}.cls-13{fill:#54a9ba;}.cls-14{fill:#84afb5;}.cls-15{opacity:0.75;}.cls-16{fill:#4d99a8;}.cls-17{opacity:0.69;}.cls-18{opacity:0.7;}.cls-19{opacity:0.44;}.cls-20{fill:#66b0ba;opacity:0.85;}.cls-21{fill:#51a2b2;}.cls-22{fill:#458996;}.cls-23{fill:#68a5af;opacity:0.88;}.cls-24{opacity:0.81;}.cls-25{fill:#fdbb56;}.cls-26{opacity:0.68;}.cls-27{opacity:0.49;}.cls-28{opacity:0.77;}.cls-29{opacity:0.55;}.cls-30{opacity:0.96;}.cls-31{fill:#51a1b0;opacity:0.72;}</style></defs><title>dataJointBackdrop</title><g id="_Group_" data-name="&lt;Group&gt;" class="cls-1"><polygon class="cls-2" points="777.34 299.17 777.34 448.77 647.78 523.57 647.78 374.03 777.34 299.17"/><polygon class="cls-3" points="518.23 299.24 518.23 299.23 518.23 299.17 647.78 224.37 777.34 299.17 647.78 374.03 518.23 299.24"/><polygon class="cls-4" points="647.78 523.63 647.78 673.23 518.23 748.03 518.23 598.43 647.78 523.63"/><polygon class="cls-2" points="647.78 523.57 647.78 523.63 518.27 448.86 518.32 448.83 647.78 523.57"/><polygon class="cls-5" points="647.78 374.03 647.78 523.57 518.32 448.83 647.78 374.03"/><polygon class="cls-5" points="518.23 299.24 647.78 374.03 518.32 448.83 518.23 448.77 518.23 299.23 518.23 299.24"/><polygon class="cls-6" points="647.78 523.63 518.23 598.43 518.23 598.34 518.23 593.97 518.23 448.89 518.27 448.86 647.78 523.63"/><polygon class="cls-7" points="518.23 448.83 518.17 448.86 388.67 374.03 388.73 374 518.23 299.23 518.23 448.77 518.32 448.83 518.27 448.86 518.23 448.83"/><polygon class="cls-5" points="518.27 448.86 518.23 448.89 518.23 448.83 518.27 448.86"/><polygon class="cls-8" points="518.23 598.43 518.23 748.03 388.67 673.23 388.67 524.34 388.67 523.63 518.23 598.43"/><polygon class="cls-6" points="518.23 598.34 518.23 598.43 388.67 523.63 518.17 448.86 518.23 448.89 518.23 593.97 518.23 598.34"/><polygon class="cls-6" points="518.23 448.83 518.23 448.89 518.17 448.86 518.23 448.83"/><polygon class="cls-7" points="518.17 448.86 388.67 523.63 388.67 374.8 388.67 374.03 518.17 448.86"/><polygon class="cls-9" points="518.27 598.43 518.27 448.89 647.83 374.03 647.83 523.63 518.27 598.43"/><polygon class="cls-9" points="647.78 673.2 647.78 523.66 777.34 448.8 777.34 598.4 647.78 673.2"/><polygon class="cls-10" points="518.28 299.14 388.73 374 259.18 299.21 259.17 299.2 259.17 299.14 388.73 224.34 518.28 299.14"/><polygon class="cls-11" points="518.27 448.83 518.27 598.43 388.73 523.63 388.73 374.74 388.73 374.06 388.73 374.03 518.27 448.83"/><polygon class="cls-12" points="388.72 373.97 388.72 523.57 259.17 448.77 259.17 299.88 259.17 299.2 259.17 299.17 388.72 373.97"/><polygon class="cls-11" points="388.72 523.6 388.72 673.2 259.17 598.4 259.17 449.51 259.17 448.83 259.17 448.8 388.72 523.6"/><polygon class="cls-8" points="388.72 673.23 388.72 822.83 259.17 748.03 259.17 599.14 259.17 598.43 388.72 673.23"/><polygon class="cls-13" points="259.17 448.8 259.17 598.4 129.61 673.2 129.61 523.6 259.17 448.8"/><polygon class="cls-2" points="259.17 598.43 259.17 748.03 129.61 822.83 129.61 673.29 259.17 598.43"/><polygon class="cls-14" points="0.06 448.41 0.05 448.4 0.05 448.34 129.61 373.54 259.17 448.34 129.61 523.2 0.06 448.41"/><polygon class="cls-3" points="647.79 523.68 647.78 523.67 647.78 523.62 777.34 448.81 906.9 523.62 777.34 598.48 647.79 523.68"/><polygon class="cls-8" points="777.34 598.63 777.34 748.23 647.79 673.43 647.79 524.54 647.79 523.83 777.34 598.63"/><polygon class="cls-4" points="906.9 523.63 906.9 673.23 777.34 748.03 777.34 598.43 906.9 523.63"/><polygon class="cls-15" points="129.6 673.23 129.6 822.83 0.05 748.03 0.05 599.14 0.05 598.46 0.05 598.43 129.6 673.23"/><polygon class="cls-16" points="518.27 748.03 518.27 897.63 647.83 972.43 647.83 822.83 518.27 748.03"/><polygon class="cls-4" points="259.42 448.8 259.42 598.4 388.98 673.2 388.98 523.6 259.42 448.8"/><polygon class="cls-3" points="518.28 748.07 518.27 748.06 518.27 748 647.83 673.2 777.39 748 647.83 822.86 518.28 748.07"/><polygon class="cls-8" points="129.6 523.6 129.6 673.2 0.05 598.4 0.05 449.51 0.05 448.8 129.6 523.6"/><polygon class="cls-17" points="259.16 299.14 259.16 448.74 129.62 373.94 129.62 225.05 129.62 224.37 129.62 224.34 259.16 299.14"/><polygon class="cls-7" points="129.55 374.01 129.5 374.04 0 299.21 0.05 299.19 129.55 224.42 129.55 373.95 129.65 374.01 129.6 374.04 129.55 374.01"/><polygon class="cls-18" points="129.6 373.97 129.6 523.57 0.05 448.77 0.05 299.88 0.05 299.2 0.05 299.17 129.6 373.97"/><polygon class="cls-19" points="259.12 448.83 259.06 448.86 129.56 374.03 129.62 374 259.12 299.23 259.12 448.77 259.21 448.83 259.16 448.86 259.12 448.83"/><polygon class="cls-3" points="129.87 822.9 129.85 822.89 129.85 822.83 259.42 748.03 388.98 822.83 259.42 897.69 129.87 822.9"/><polygon class="cls-4" points="777.34 748.03 777.34 897.63 647.78 972.43 647.78 822.83 777.34 748.03"/><polygon class="cls-20" points="259.43 748.27 259.42 748.26 259.42 748.2 388.98 673.4 518.53 748.2 388.98 823.06 259.43 748.27"/><polygon class="cls-21" points="518.2 748.03 518.2 897.63 388.64 972.43 388.64 822.83 518.2 748.03"/><polygon class="cls-22" points="388.72 823.06 388.72 972.66 259.17 1047.46 259.17 897.86 388.72 823.06"/><polygon class="cls-23" points="906.9 373.97 906.9 523.57 777.35 448.77 777.35 299.88 777.35 299.17 906.9 373.97"/><polygon class="cls-3" points="777.35 299.27 777.34 299.26 777.34 299.2 906.9 224.4 1036.46 299.2 906.9 374.06 777.35 299.27"/><polygon class="cls-2" points="1036.46 299.17 1036.46 448.77 906.9 523.57 906.9 374.03 1036.46 299.17"/><polygon class="cls-13" points="1036.46 448.8 1036.46 598.4 906.9 673.2 906.9 523.6 1036.46 448.8"/><polygon class="cls-13" points="906.9 673.4 906.9 823 777.34 897.8 777.34 748.2 906.9 673.4"/><polygon class="cls-4" points="1036.46 598.43 1036.46 748.03 906.9 822.83 906.9 673.23 1036.46 598.43"/><polygon class="cls-8" points="259.17 897.86 259.17 1047.46 129.61 972.66 129.61 823.77 129.61 823.06 259.17 897.86"/><polygon class="cls-16" points="0.04 748.03 0.04 897.63 129.6 972.43 129.6 822.83 0.04 748.03"/><polygon class="cls-24" points="259.16 149.63 259.16 299.23 129.62 224.43 129.62 75.54 129.62 74.86 129.62 74.83 259.16 149.63"/><polygon class="cls-25" points="259.42 149.63 259.42 299.23 388.97 224.43 388.97 75.54 388.97 74.86 388.97 74.83 259.42 149.63"/><polygon class="cls-10" points="388.98 74.8 259.43 149.66 129.88 74.87 129.87 74.86 129.87 74.8 259.43 0 388.98 74.8"/><polygon class="cls-26" points="259.42 299.2 129.87 374.06 0.32 299.27 0.31 299.26 0.31 299.2 129.87 224.4 259.42 299.2"/><polygon class="cls-27" points="518.27 149.63 518.27 299.23 388.72 224.43 388.72 75.54 388.72 74.83 518.27 149.63"/><polygon class="cls-28" points="647.78 74.83 647.78 224.43 518.23 299.23 518.23 149.69 647.78 74.83"/><polygon class="cls-29" points="388.98 74.87 388.98 74.86 388.98 74.8 518.53 0 648.09 74.8 518.53 149.66 388.98 74.87"/><polygon class="cls-30" points="777.34 149.63 777.34 299.23 647.79 224.43 647.79 75.54 647.79 74.83 777.34 149.63"/><polygon class="cls-2" points="906.9 74.83 906.9 224.43 777.34 299.23 777.34 149.69 906.9 74.83"/><polygon class="cls-3" points="647.84 74.87 647.83 74.86 647.83 74.8 777.39 0 906.95 74.8 777.39 149.66 647.84 74.87"/><polygon class="cls-31" points="1036.46 149.63 1036.46 299.23 906.91 224.43 906.91 75.54 906.91 74.83 1036.46 149.63"/></g></svg>